<svg width="73" height="72" viewBox="0 0 73 72" fill="none" xmlns="http://www.w3.org/2000/svg">
<path d="M25.8691 47.9995C25.8691 46.796 25.8582 45.6764 25.8725 44.5572C25.8839 43.6639 26.3249 43.2001 27.2043 43.1989C33.5029 43.1905 39.8014 43.1911 46.0998 43.1981C46.991 43.1991 47.4457 43.6513 47.4593 44.53C47.4765 45.6491 47.4635 46.7687 47.4635 47.9406C50.1385 47.9406 52.9461 47.9406 55.8562 47.9406C55.8562 47.0191 55.8816 46.0796 55.8352 45.1434C55.8258 44.9526 55.5712 44.7443 55.3877 44.5961C53.7552 43.2772 52.1089 41.9753 50.476 40.6573C49.7698 40.0872 49.6704 39.3402 50.1952 38.7804C50.6284 38.3183 51.2643 38.2432 51.8195 38.68C53.8223 40.2557 55.82 41.8393 57.7783 43.4692C58.0559 43.7002 58.2186 44.1983 58.24 44.5834C58.3011 45.6782 58.2614 46.7787 58.2614 47.946C58.5004 47.9626 58.7141 47.9901 58.9276 47.9905C61.4269 47.9935 63.9265 47.9973 66.4258 47.9909C68.6502 47.9851 70.2739 46.4385 70.2564 44.3563C70.2394 42.3124 68.6197 40.8037 66.4274 40.7961C65.0278 40.7912 63.628 40.7983 62.2285 40.7941C61.0592 40.7906 60.6624 40.3923 60.6622 39.212C60.6606 28.8661 60.6612 18.5202 60.6612 8.17435C60.6612 7.87993 60.6612 7.58552 60.6612 7.24964C59.8609 7.24964 59.1206 7.24964 58.2618 7.24964C58.2618 7.52042 58.2618 7.80743 58.2618 8.09444C58.2618 17.1409 58.2618 26.1873 58.2618 35.2336C58.2618 35.4334 58.2666 35.6335 58.2604 35.8332C58.235 36.6594 57.7755 37.1827 57.0729 37.1901C56.3685 37.1975 55.876 36.674 55.8666 35.8566C55.8516 34.5574 55.8624 33.2578 55.8622 31.9583C55.8622 31.7374 55.8622 31.5163 55.8622 31.1986C55.5496 31.1986 55.2848 31.1986 55.02 31.1986C51.071 31.1986 47.1218 31.1992 43.1728 31.1982C41.8313 31.1978 41.466 30.8421 41.4658 29.5311C41.4646 23.4334 41.4646 17.336 41.466 11.2383C41.4664 9.97471 41.8427 9.60739 43.132 9.60699C47.081 9.60558 51.0302 9.60659 54.9792 9.60659C55.2477 9.60659 55.5165 9.60659 55.8232 9.60659C55.8232 8.79984 55.8232 8.05979 55.8232 7.26326C49.4721 7.26326 43.1157 7.26326 36.6662 7.26326C36.6662 7.52463 36.6662 7.79001 36.6662 8.05518C36.6662 13.6031 36.6668 19.1507 36.6658 24.6986C36.6656 26.0341 36.3063 26.3982 34.9914 26.3998C33.5417 26.4016 32.0913 26.3736 30.643 26.4212C30.3306 26.4315 29.9312 26.6326 29.7357 26.8769C28.7998 28.0468 27.9236 29.2643 27.0193 30.4598C26.4345 31.2331 25.7837 31.4043 25.1719 30.9625C24.5374 30.5044 24.5165 29.8167 25.1256 28.9999C26.1709 27.5981 27.2422 26.2152 28.2616 24.7951C28.6868 24.2027 29.1958 23.9726 29.9126 23.9906C31.332 24.0261 32.753 24.001 34.2197 24.001C34.2197 18.3929 34.2197 12.8374 34.2197 7.24443C33.4558 7.24443 32.7156 7.24443 31.867 7.24443C31.867 8.25527 31.8341 9.27011 31.8768 10.2819C31.915 11.1912 31.6643 11.8572 30.6645 12.0563C30.6645 12.887 30.6799 13.6858 30.6617 14.4839C30.601 17.1331 28.4589 19.2176 25.8286 19.2004C23.2375 19.1834 21.1305 17.0976 21.0742 14.4807C21.057 13.6826 21.0716 12.8838 21.0716 12.0567C20.0686 11.8564 19.8205 11.1892 19.8599 10.2801C19.903 9.28713 19.8697 8.29092 19.8697 7.25204C19.0748 7.25204 18.3348 7.25204 17.532 7.25204C17.532 12.7855 17.532 18.341 17.532 24.001C18.7483 24.001 19.9873 24.0008 21.2263 24.0012C21.5762 24.0014 21.9273 23.9848 22.2758 24.0084C22.9864 24.0567 23.4674 24.5546 23.4626 25.2085C23.4578 25.8603 22.9733 26.3758 22.2589 26.3896C20.8597 26.4168 19.4598 26.3992 18.0602 26.4002C17.8899 26.4004 17.7199 26.4002 17.5118 26.4002C17.5118 28.4023 17.5118 30.3418 17.5118 32.3979C18.534 32.3979 19.5717 32.3965 20.6094 32.3983C21.8918 32.4005 22.2673 32.7701 22.2687 34.0381C22.2709 36.1871 22.2733 38.3364 22.2677 40.4854C22.2649 41.5659 21.8471 41.9857 20.7768 41.9928C19.7063 41.9998 18.6356 41.9944 17.518 41.9944C17.518 44.0022 17.518 45.9592 17.518 47.9927C18.2564 47.9927 18.9747 47.9833 19.6925 47.9951C20.5253 48.0087 21.0472 48.4633 21.0632 49.1653C21.0799 49.892 20.5375 50.3869 19.6691 50.3881C15.295 50.3937 10.9208 50.4209 6.54723 50.3775C3.30743 50.3452 0.690714 47.7151 0.685106 44.4673C0.662874 31.6224 0.662874 18.7774 0.685306 5.93257C0.691114 2.68336 3.31083 0.0828676 6.54743 0.0183761C8.12146 -0.0128682 9.6967 0.00295429 11.2711 0.0133691C12.2101 0.0195779 12.6663 0.458601 12.6673 1.38492C12.6743 8.05719 12.6735 14.7297 12.6681 21.4019C12.6675 22.2694 12.1706 22.8125 11.4444 22.7955C10.723 22.7785 10.2747 22.2409 10.2741 21.3489C10.2701 15.3762 10.2719 9.4037 10.2719 3.43102C10.2719 3.13159 10.2719 2.83217 10.2719 2.33026C8.66563 2.42059 7.05915 2.34908 5.52257 2.6435C4.00982 2.93311 3.08031 4.45688 3.0767 6.10742C3.06789 10.1059 3.0737 14.1042 3.0735 18.1026C3.0735 24.95 3.0735 31.7973 3.0735 38.6444C3.0735 38.9098 3.0735 39.175 3.0735 39.6054C5.30647 37.8925 7.81202 38.5461 10.2719 38.361C10.2719 38.0742 10.2719 37.8084 10.2719 37.5426C10.2719 33.994 10.2715 30.4454 10.2727 26.8969C10.2727 26.6722 10.2507 26.4407 10.2955 26.2242C10.4287 25.5807 10.8359 25.2039 11.4995 25.2155C12.1271 25.2264 12.5107 25.6007 12.6455 26.2065C12.6881 26.3982 12.6707 26.6045 12.6707 26.8042C12.6719 30.9276 12.6727 35.0509 12.6709 39.1744C12.6703 40.4041 12.2848 40.7918 11.066 40.7945C9.64142 40.7977 8.2166 40.787 6.79197 40.7973C4.67737 40.8125 3.0753 42.3695 3.0759 44.3938C3.0765 46.4178 4.67717 47.9795 6.79338 47.9893C9.51564 48.0019 12.2379 47.9923 15.0711 47.9923C15.0711 47.671 15.0711 47.383 15.0711 47.0952C15.0711 33.6006 15.0711 20.1059 15.0713 6.61133C15.0713 5.12803 15.3894 4.80877 16.8669 4.80857C31.1385 4.80837 45.4102 4.80837 59.6816 4.80837C59.9773 4.80837 60.2729 4.80837 60.6616 4.80837C60.6616 3.69279 60.6582 2.62748 60.6626 1.56237C60.6672 0.427357 61.0688 0.00055087 62.183 0.0147711C64.0544 0.0388052 65.9485 -0.0777603 67.7914 0.172595C70.5691 0.549931 72.6114 3.02144 72.6428 5.82982C72.6877 9.8277 72.6613 13.8266 72.6553 17.8249C72.654 18.6542 72.1842 19.1802 71.4854 19.1968C70.7596 19.214 70.2645 18.6707 70.2629 17.8036C70.2559 14.0052 70.2613 10.2066 70.259 6.40825C70.2574 3.85582 68.814 2.41237 66.2662 2.40957C65.2229 2.40837 64.1796 2.40937 63.0993 2.40937C63.0993 14.4144 63.0993 26.35 63.0993 38.3544C65.4765 38.5697 68.0161 37.8731 70.2597 39.6096C70.2597 39.1758 70.2597 38.9108 70.2597 38.6456C70.2597 33.5476 70.2595 28.4497 70.2601 23.3517C70.2601 23.1268 70.239 22.8974 70.2751 22.6781C70.3818 22.029 70.772 21.6511 71.4341 21.6128C72.0544 21.577 72.5683 22.0496 72.6462 22.7032C72.6727 22.9253 72.6587 23.1524 72.6587 23.3773C72.6591 30.2246 72.6603 37.072 72.6585 43.9191C72.6575 47.8757 70.1515 50.3909 66.2083 50.3913C52.5621 50.3927 38.9158 50.3919 25.2696 50.3915C25.0447 50.3915 24.818 50.4047 24.5952 50.3809C23.9323 50.31 23.4755 49.8167 23.4755 49.1918C23.4753 48.5655 23.9303 48.0586 24.5946 48.0069C25.0607 47.9702 25.532 47.9995 25.8691 47.9995ZM43.9185 16.8364C43.9185 20.8521 43.9185 24.8064 43.9185 28.7389C47.9274 28.7389 51.8824 28.7389 55.822 28.7389C55.822 24.7421 55.822 20.8053 55.822 16.8364C51.8445 16.8364 47.9073 16.8364 43.9185 16.8364ZM28.2917 45.6173C28.2817 45.8358 28.2707 45.9826 28.2689 46.1294C28.2494 47.658 28.5731 47.9917 30.0756 47.9921C31.7977 47.9925 33.5197 47.9923 35.2418 47.9923C38.0369 47.9923 40.8323 47.9965 43.6275 47.9897C44.549 47.9875 45.0178 47.5681 45.0595 46.7307C45.0775 46.368 45.0625 46.0034 45.0625 45.6175C39.4339 45.6173 33.9008 45.6173 28.2917 45.6173ZM43.9279 12.0196C43.9279 12.8003 43.9279 13.5746 43.9279 14.3543C47.9101 14.3543 51.8637 14.3543 55.8035 14.3543C55.8035 13.5456 55.8035 12.7881 55.8035 12.0196C51.8265 12.0196 47.9087 12.0196 43.9279 12.0196ZM23.4692 12.0324C23.4692 12.6082 23.4684 13.1048 23.4694 13.6013C23.47 13.9257 23.4548 14.2514 23.4787 14.574C23.5662 15.7639 24.5422 16.7261 25.7188 16.7978C26.9282 16.8715 28.085 16.0073 28.2192 14.7955C28.3189 13.8933 28.2388 12.971 28.2388 12.0322C26.6377 12.0324 25.0998 12.0324 23.4692 12.0324ZM29.4313 7.25685C27.0239 7.25685 24.6695 7.25685 22.3272 7.25685C22.3272 8.0646 22.3272 8.82167 22.3272 9.56973C24.722 9.56973 27.0585 9.56973 29.4313 9.56973C29.4313 8.79543 29.4313 8.05639 29.4313 7.25685ZM19.8165 39.5625C19.8165 37.9444 19.8165 36.3898 19.8165 34.8582C19.0049 34.8582 18.2476 34.8582 17.5106 34.8582C17.5106 36.4567 17.5106 37.9937 17.5106 39.5625C18.2889 39.5625 19.0277 39.5625 19.8165 39.5625Z" fill="#7AC05A"/>
<path d="M63.0314 69.5841C63.0314 67.957 63.0314 66.4176 63.0314 64.832C62.2493 64.832 61.4914 64.832 60.6843 64.832C60.5895 65.8009 60.9657 67.075 59.4089 67.1643C58.6023 67.2106 58.3594 66.6802 58.2212 64.838C57.4679 64.838 56.7092 64.838 55.8981 64.838C55.7711 65.7919 56.1837 67.129 54.556 67.1595C53.7562 67.1743 53.5267 66.6365 53.4354 64.8456C52.6833 64.8456 51.9248 64.8456 51.0957 64.8456C50.9683 65.7695 51.3857 67.2065 49.7794 67.1374C48.3562 67.0762 48.7409 65.7657 48.635 64.8266C47.8631 64.8266 47.1226 64.8266 46.2612 64.8266C46.2612 65.1995 46.2802 65.5878 46.257 65.9734C46.2139 66.6874 45.7248 67.1729 45.0741 67.1791C44.4212 67.1851 43.9197 66.7034 43.8728 65.994C43.8484 65.6241 43.8684 65.2514 43.8684 64.8336C43.0601 64.8336 42.3016 64.8336 41.4894 64.8336C41.3901 65.7925 41.7738 67.0703 40.2196 67.1647C39.4035 67.2142 39.1499 66.6664 39.0305 64.8406C38.2773 64.8406 37.5184 64.8406 36.7094 64.8406C36.5656 65.7579 36.9874 67.1593 35.4424 67.14C33.9553 67.1216 34.3463 65.7739 34.2409 64.8222C33.4556 64.8222 32.7152 64.8222 31.8958 64.8222C31.778 65.7663 32.1882 67.2009 30.5902 67.1374C29.1689 67.081 29.5317 65.7793 29.4511 64.829C28.6526 64.829 27.8941 64.829 27.1397 64.829C26.8769 66.7902 26.6303 67.221 25.81 67.1791C25.0104 67.1382 24.7801 66.6916 24.6229 64.836C23.8692 64.836 23.1107 64.836 22.2948 64.836C22.189 65.7829 22.5838 67.0663 21.0304 67.1651C20.2034 67.2176 19.9408 66.6562 19.8401 64.843C19.0868 64.843 18.3275 64.843 17.5146 64.843C17.365 65.7487 17.7968 67.1559 16.2532 67.14C14.7679 67.1248 15.1358 65.7883 15.0529 64.8248C14.2648 64.8248 13.5245 64.8248 12.6996 64.8248C12.578 65.7575 12.999 67.1965 11.4007 67.1388C9.97049 67.0872 10.3466 65.7805 10.2421 64.8316C9.46196 64.8316 8.70329 64.8316 7.89554 64.8316C7.80061 65.8015 8.17674 67.0754 6.61993 67.1649C5.81339 67.2111 5.57024 66.6808 5.43224 64.8386C4.67898 64.8386 3.9203 64.8386 3.11696 64.8386C3.11696 66.3834 3.11696 67.9232 3.11696 69.5847C3.38233 69.5847 3.66894 69.5847 3.95535 69.5847C15.8516 69.5847 27.7479 69.5847 39.6442 69.5847C40.8916 69.5847 41.4442 69.9442 41.4586 70.7638C41.4734 71.5978 40.8886 71.9837 39.6088 71.9837C27.2376 71.9837 14.8664 71.9839 2.49528 71.9837C0.976921 71.9837 0.673891 71.6751 0.67369 70.1307C0.67349 68.0816 0.671487 66.0327 0.674492 63.9836C0.676294 62.7927 1.06545 62.3885 2.22569 62.3885C22.7943 62.3869 43.3629 62.3869 63.9315 62.3887C65.0509 62.3887 65.4564 62.8021 65.4586 63.9337C65.463 66.1076 65.4635 68.2817 65.4584 70.4556C65.4558 71.5727 65.0421 71.9819 63.912 71.9825C57.7389 71.9851 51.5659 71.9849 45.3928 71.9825C44.4344 71.9821 43.8888 71.5545 43.8704 70.8121C43.8514 70.0402 44.4128 69.5861 45.4104 69.5857C50.9587 69.5835 56.5069 69.5845 62.0552 69.5845C62.3536 69.5841 62.6519 69.5841 63.0314 69.5841Z" fill="#7AC05A"/>
<path d="M53.4299 57.5891C53.4299 56.7481 53.4299 56.0083 53.4299 55.2294C45.8601 55.2294 38.3234 55.2294 30.7273 55.2294C30.7273 55.9718 30.7273 56.7299 30.7273 57.5887C30.977 57.5887 31.2414 57.5887 31.5058 57.5887C35.9034 57.5887 40.301 57.5801 44.6985 57.6035C45.0948 57.6055 45.5966 57.7051 45.8553 57.9578C46.1069 58.2036 46.2793 58.7604 46.1752 59.0788C46.059 59.4341 45.6208 59.7197 45.2657 59.9461C45.0848 60.0614 44.7788 59.9869 44.5292 59.9869C39.6818 59.9883 34.8345 59.9955 29.9872 59.9763C29.5019 59.9743 28.9942 59.8742 28.5361 59.7099C26.3999 58.944 24.2805 58.1317 22.1483 57.3542C21.5344 57.1305 21.0597 56.8092 21.0782 56.0918C21.0976 55.3357 21.6169 55.0507 22.2733 54.8627C24.239 54.2993 26.1872 53.6728 28.1602 53.1364C28.9183 52.9303 29.7244 52.8065 30.5089 52.8049C40.8783 52.7835 51.2478 52.7889 61.6171 52.7921C63.818 52.7927 65.4341 54.2934 65.4579 56.3377C65.4806 58.2775 63.9594 59.9505 62.0177 59.9709C57.9954 60.0136 53.972 59.9917 49.9493 59.9807C49.1786 59.9787 48.6767 59.479 48.6705 58.798C48.6641 58.0904 49.1828 57.6039 50.003 57.5927C51.1234 57.5777 52.2442 57.5891 53.4299 57.5891ZM58.2261 55.2398C57.4183 55.2398 56.6627 55.2398 55.9194 55.2398C55.9194 56.0471 55.9194 56.8032 55.9194 57.5517C56.7149 57.5517 57.4532 57.5517 58.2261 57.5517C58.2261 56.7776 58.2261 56.0393 58.2261 55.2398ZM60.7002 57.5679C61.4805 57.5519 62.3419 57.8573 62.8142 57.0363C63.0059 56.7031 63.0073 56.0774 62.8168 55.7435C62.3467 54.9185 61.4831 55.2282 60.7002 55.2095C60.7002 56.0101 60.7002 56.765 60.7002 57.5679ZM28.2435 55.5917C27.5365 55.8158 26.9303 56.0079 26.1191 56.2648C26.9635 56.5713 27.5784 56.7944 28.2435 57.0357C28.2435 56.5282 28.2435 56.1134 28.2435 55.5917Z" fill="#7AC05A"/>
<path d="M41.4634 36.0188C41.4486 38.6686 39.2789 40.8088 36.6225 40.7936C33.9828 40.7786 31.8435 38.5921 31.8684 35.9343C31.8928 33.3226 34.0513 31.1942 36.6704 31.199C39.324 31.2038 41.4782 33.3701 41.4634 36.0188ZM39.0614 36.0238C39.076 34.7174 38.0153 33.6232 36.7123 33.6004C35.3726 33.577 34.2698 34.6635 34.2702 36.0062C34.2706 37.3034 35.3591 38.392 36.6564 38.3924C37.9676 38.3928 39.0468 37.3301 39.0614 36.0238Z" fill="#7AC05A"/>
</svg>
