<svg width="72" height="72" viewBox="0 0 72 72" fill="none" xmlns="http://www.w3.org/2000/svg">
<path d="M71.9999 9.10751C71.7016 9.38648 71.4492 9.78216 71.0957 9.92138C70.2168 10.2678 69.4389 9.62062 69.4208 8.54923C69.3929 6.88845 69.412 5.22696 69.4113 3.56565C69.4112 3.31341 69.4113 3.06116 69.4113 2.76163C47.1734 2.76163 25.0106 2.76163 2.78797 2.76163C2.78797 24.9519 2.78797 47.1367 2.78797 69.3662C17.185 69.3662 31.5563 69.3662 45.9674 69.3662C45.9674 68.421 45.9674 67.5195 45.9674 66.5384C45.7166 66.5247 45.4708 66.5001 45.2251 66.4996C43.2368 66.4964 41.2486 66.5015 39.2601 66.4964C37.9527 66.4929 37.4949 66.0306 37.4939 64.7113C37.4905 60.9444 37.4926 57.1774 37.4926 53.4104C37.4926 53.1581 37.4926 52.9059 37.4926 52.606C36.529 52.606 35.632 52.606 34.6471 52.606C34.6471 52.9004 34.6471 53.1739 34.6471 53.4475C34.6471 57.1677 34.648 60.8878 34.6466 64.608C34.646 66.0768 34.2303 66.4971 32.7724 66.4975C24.328 66.4985 15.8835 66.4987 7.43914 66.4973C6.02832 66.4971 5.6068 66.0703 5.60662 64.6525C5.60592 57.3524 5.60574 50.0524 5.6068 42.7524C5.60697 41.3588 6.00529 40.9626 7.40504 40.9624C18.8437 40.9615 30.2823 40.9619 41.7209 40.9619C41.9998 40.9619 42.279 40.9619 42.62 40.9619C42.62 40.0127 42.62 39.0937 42.62 38.0817C42.3291 38.0817 42.0317 38.0817 41.7342 38.0817C33.3133 38.0817 24.8921 38.0821 16.4711 38.08C16.1677 38.08 15.861 38.08 15.5618 38.0374C14.9295 37.9474 14.4936 37.4686 14.4586 36.865C14.4222 36.2376 14.8404 35.6786 15.4829 35.5431C15.7311 35.4907 15.9942 35.497 16.2507 35.497C25.3266 35.4949 34.4028 35.4949 43.4787 35.4958C44.851 35.496 45.2913 35.9294 45.2956 37.29C45.3001 38.7875 45.3012 40.285 45.2952 41.7823C45.2899 43.1003 44.8487 43.5376 43.5172 43.5378C32.0786 43.5397 20.64 43.5388 9.20135 43.5388C8.90094 43.5388 8.60035 43.5388 8.24123 43.5388C8.24123 44.7029 8.24123 45.8098 8.24123 47.0093C9.31226 47.0093 10.3801 47.0394 11.4455 47.0019C12.8836 46.9513 14.1315 47.3092 15.07 48.5595C16.51 47.8393 18.0344 47.5454 19.6169 47.7172C20.3533 47.7971 21.0907 47.9724 21.7962 48.2009C22.5955 48.4598 22.9295 49.1457 22.7105 49.8506C22.5087 50.5 21.8513 50.8601 21.0687 50.6534C19.975 50.3646 18.8904 50.1085 17.7549 50.3732C17.6411 50.3998 17.5249 50.4159 17.4119 50.4448C15.8454 50.8441 15.7142 51.0108 15.7142 52.5969C15.7142 53.8134 15.6966 55.0307 15.7299 56.2464C15.7362 56.4771 15.8833 56.7936 16.0679 56.9154C17.8978 58.1246 20.8771 57.8409 22.4732 56.3375C23.6214 55.2559 23.8701 54.0398 23.2412 52.5831C23.1949 52.4759 23.147 52.3692 23.1063 52.2599C22.827 51.5075 23.0587 50.8317 23.6975 50.5297C24.3458 50.2231 24.996 50.4583 25.4193 51.1521C26.6626 53.1901 26.3669 55.9569 24.7172 57.7233C22.4519 60.1488 18.8419 60.9328 15.7654 59.6673C15.5497 59.5785 15.334 59.4899 15.0677 59.3804C14.084 60.7454 12.6567 60.9923 11.0905 60.9217C10.1581 60.8797 9.22244 60.9139 8.23525 60.9139C8.23525 61.8985 8.23525 62.8428 8.23525 63.8323C16.1479 63.8323 24.0412 63.8323 32.0309 63.8323C32.0309 63.55 32.0309 63.2789 32.0309 63.0079C32.0309 59.2876 32.0299 55.5676 32.0315 51.8473C32.0322 50.3739 32.4419 49.9626 33.9011 49.9615C35.3514 49.9605 36.8016 49.9603 38.252 49.9615C39.6679 49.9628 40.1063 50.3912 40.1074 51.7911C40.1102 55.5113 40.1084 59.2314 40.1084 62.9516C40.1084 63.2283 40.1084 63.505 40.1084 63.8767C40.4108 63.8767 40.6588 63.8767 40.9068 63.8767C42.8951 63.8767 44.8835 63.8722 46.8718 63.8785C48.107 63.8825 48.5749 64.3468 48.5793 65.5644C48.585 67.1554 48.5575 68.7469 48.5904 70.3372C48.6069 71.1376 48.3195 71.6911 47.5786 71.9998C32.0932 71.9998 16.6077 71.9998 1.12227 71.9998C0.357442 71.6602 0.130508 71.0539 0.13086 70.2458C0.14211 47.4611 0.139825 24.6759 0.140528 1.89099C0.140528 0.562432 0.57875 0.123506 1.90555 0.123506C24.685 0.122627 47.4647 0.125088 70.2442 0.114014C71.0521 0.113663 71.661 0.337608 71.9999 1.1056C71.9999 3.77273 71.9999 6.44003 71.9999 9.10751ZM8.18463 49.6457C8.18463 52.4471 8.17953 55.1991 8.20062 57.9512C8.20168 58.0789 8.43476 58.3124 8.56344 58.3148C9.75471 58.3386 10.9477 58.347 12.1385 58.3069C12.73 58.2871 13.0947 57.9158 13.0977 57.3078C13.109 55.0636 13.1069 52.8194 13.0912 50.5752C13.0877 50.0762 12.8126 49.6752 12.3021 49.6595C10.9567 49.6182 9.60916 49.6457 8.18463 49.6457Z" fill="#7AC05A"/>
<path d="M57.4033 71.9998C56.6491 71.646 56.4127 71.0277 56.4261 70.2297C56.4516 68.7094 56.4308 67.1883 56.4342 65.6675C56.437 64.3526 56.8986 63.8821 58.1967 63.878C59.8341 63.8729 61.4714 63.8768 63.1088 63.8768C63.3617 63.8768 63.6145 63.8768 63.9123 63.8768C63.9123 57.0878 63.9123 50.3634 63.9123 43.5386C63.0943 43.5386 62.3081 43.5387 61.5218 43.5386C60.5394 43.5382 59.5566 43.5535 58.5747 43.5324C57.5915 43.5111 57.1267 43.0344 57.119 42.0414C57.1062 40.3805 57.1081 38.7192 57.118 37.058C57.1245 35.9631 57.6024 35.5018 58.7262 35.4971C60.4323 35.4899 62.1384 35.4952 63.9008 35.4952C63.9008 34.2816 63.9008 33.107 63.9008 31.8626C62.8901 31.8626 61.9133 31.8656 60.9364 31.8619C59.6787 31.8572 59.2275 31.4209 59.227 30.1881C59.224 24.5029 59.224 18.8176 59.227 13.1323C59.2277 11.9254 59.6724 11.4831 60.8774 11.4755C61.8586 11.4694 62.8398 11.4743 63.889 11.4743C63.889 10.3606 63.889 9.28196 63.889 8.16328C55.9889 8.16328 48.0951 8.16328 40.1085 8.16328C40.1085 8.44963 40.1085 8.72069 40.1085 8.99192C40.1085 14.7473 40.1088 20.503 40.1081 26.2584C40.108 27.8286 39.7307 28.2064 38.1684 28.2069C36.7416 28.2074 35.3148 28.208 33.8879 28.2067C32.4325 28.2057 32.0319 27.7993 32.0315 26.3159C32.0303 20.5604 32.031 14.8048 32.031 9.0494C32.031 8.77184 32.031 8.49428 32.031 8.17084C28.6968 8.17084 25.4107 8.17084 22.0248 8.17084C22.0248 8.43487 22.0248 8.70487 22.0248 8.97504C22.0246 14.0052 22.0417 19.0355 22.019 24.0657C22.0006 28.1582 19.3913 31.4761 15.4511 32.3054C14.2553 32.5571 12.989 32.4958 11.7536 32.5318C10.5909 32.5658 9.4264 32.539 8.22318 32.539C8.22318 33.5373 8.22318 34.4628 8.22318 35.4549C8.45679 35.4686 8.68003 35.4918 8.90345 35.4932C9.7922 35.4992 10.682 35.4728 11.5695 35.508C12.3428 35.5386 12.8805 36.106 12.8733 36.8016C12.8663 37.4739 12.3623 38.0352 11.6142 38.0522C10.0251 38.0885 8.43376 38.0892 6.84488 38.0486C6.09236 38.0294 5.67083 37.5347 5.61318 36.7789C5.59894 36.5927 5.6065 36.4048 5.6065 36.2176C5.60632 26.6251 5.60615 17.0327 5.6065 7.44012C5.6065 5.90116 5.96755 5.53623 7.5037 5.53606C15.9243 5.53483 24.3449 5.53483 32.7656 5.53623C34.2425 5.53641 34.6463 5.93895 34.6466 7.40286C34.6477 13.1583 34.6471 18.9139 34.6471 24.6693C34.6471 24.9483 34.6471 25.2272 34.6471 25.5649C35.5865 25.5649 36.4823 25.5649 37.4927 25.5649C37.4927 25.3023 37.4927 25.0339 37.4927 24.7656C37.4927 18.9868 37.4922 13.2079 37.493 7.42905C37.4932 5.93807 37.8831 5.53676 39.3479 5.53659C47.7919 5.53483 56.2359 5.53483 64.6801 5.53659C66.1586 5.53694 66.5331 5.92049 66.5333 7.41534C66.5337 17.0079 66.5337 26.6003 66.5333 36.1928C66.5333 37.7183 66.1674 38.0798 64.6199 38.0813C63.0114 38.0828 61.4028 38.0816 59.7434 38.0816C59.7434 39.0549 59.7434 39.9533 59.7434 40.9293C59.9932 40.9402 60.2395 40.9598 60.4859 40.9604C62.0063 40.9635 63.5268 40.9518 65.0471 40.9663C66.0308 40.9758 66.5275 41.4585 66.5286 42.4357C66.5363 49.946 66.536 57.456 66.5296 64.9663C66.5288 65.9927 66.0186 66.4828 64.9469 66.4931C63.2629 66.5093 61.5788 66.4977 59.8946 66.4979C59.6425 66.4979 59.3905 66.4979 59.0927 66.4979C59.0927 67.4844 59.0927 68.4058 59.0927 69.3663C62.5231 69.3663 65.9246 69.3663 69.4116 69.3663C69.4116 69.0022 69.4116 68.6816 69.4116 68.3611C69.4116 50.3227 69.4116 32.284 69.4119 14.2455C69.4119 13.9648 69.4098 13.6839 69.4218 13.4035C69.4497 12.7506 69.7473 12.2743 70.397 12.1101C71.0497 11.9452 71.5315 12.2279 71.8598 12.7969C71.9062 12.8774 71.9532 12.9577 71.9999 13.038C71.9999 32.692 71.9999 52.3459 71.9999 71.9998C67.125 71.9998 62.2641 71.9998 57.4033 71.9998ZM11.7843 8.15573C11.6535 9.68731 11.3451 10.2263 10.5245 10.2241C9.11298 10.2206 9.15077 9.1125 9.09716 8.15256C8.77126 8.15256 8.51866 8.15256 8.24497 8.15256C8.24497 15.4111 8.24497 22.6422 8.24497 29.9261C9.8481 29.9261 11.3893 29.9428 12.9301 29.9185C13.6277 29.9076 14.3477 29.9101 15.0171 29.7436C17.7871 29.0549 19.4044 26.8676 19.412 23.8468C19.4243 18.8408 19.416 13.8347 19.4138 8.82862C19.4136 8.60502 19.3886 8.38143 19.3753 8.15819C19.0541 8.15819 18.8049 8.15819 18.5607 8.15819C18.3215 9.77045 18.0014 10.2686 17.1741 10.2247C16.8911 10.2096 16.4782 10.1076 16.3657 9.90879C16.0706 9.38778 15.9083 8.79153 15.6592 8.13621C15.5789 8.14008 15.3631 8.15063 15.1147 8.16276C15.1147 9.26403 15.1333 10.2923 15.1092 11.3198C15.0864 12.2929 14.5314 12.883 13.7409 12.8352C12.9946 12.79 12.5226 12.2317 12.5078 11.3233C12.491 10.2771 12.504 9.23028 12.504 8.15573C12.2299 8.15573 12.0295 8.15573 11.7843 8.15573ZM63.9108 29.2446C63.9108 24.1416 63.9108 19.1308 63.9108 14.0943C63.2049 14.0943 62.5461 14.0943 61.8735 14.0943C61.8735 19.1737 61.8735 24.2028 61.8735 29.2446C62.5751 29.2446 63.2188 29.2446 63.9108 29.2446Z" fill="#7AC05A"/>
<path d="M55.6411 21.7428C55.6411 24.5031 55.6432 27.2635 55.6402 30.0238C55.6386 31.4667 55.2447 31.8618 53.8184 31.8625C50.9417 31.8639 48.0652 31.8653 45.1886 31.8618C43.9286 31.8602 43.4914 31.4313 43.4907 30.1854C43.4876 24.501 43.4874 18.8166 43.4907 13.1321C43.4914 11.9149 43.9242 11.4786 45.1323 11.4763C48.0558 11.4708 50.9792 11.4724 53.9024 11.4752C55.2338 11.4766 55.6375 11.8871 55.6396 13.2513C55.6442 16.0816 55.6411 18.9122 55.6411 21.7428ZM52.9973 29.2399C52.9973 28.6635 52.9973 28.1627 52.9973 27.6719C52.8964 27.6554 52.8509 27.6415 52.8052 27.6413C51.776 27.6387 50.7468 27.6397 49.7176 27.6357C48.4295 27.6306 47.9949 27.1962 47.9937 25.9019C47.9909 23.1177 47.9921 20.3334 47.993 17.5492C47.9935 16.0946 48.3776 15.7052 49.8106 15.7035C50.8776 15.7022 51.9446 15.7033 53.0073 15.7033C53.0073 15.1076 53.0073 14.6055 53.0073 14.0924C50.6835 14.0924 48.4052 14.0924 46.0974 14.0924C46.0974 19.1583 46.0974 24.1761 46.0974 29.24C48.4142 29.2399 50.6928 29.2399 52.9973 29.2399ZM50.6109 18.3209C50.6109 20.5821 50.6109 22.7625 50.6109 24.9874C51.43 24.9874 52.2073 24.9874 53.0077 24.9874C53.0077 22.7495 53.0077 20.551 53.0077 18.3209C52.2026 18.3209 51.4427 18.3209 50.6109 18.3209Z" fill="#7AC05A"/>
<path d="M19.7847 53.976C19.7764 54.6687 19.158 55.2694 18.4719 55.2513C17.7627 55.2325 17.2135 54.6383 17.2365 53.9146C17.2583 53.2242 17.8154 52.6782 18.4985 52.6775C19.1933 52.6764 19.7931 53.282 19.7847 53.976Z" fill="#7AC05A"/>
<path d="M15.085 25.2401C15.0729 25.9404 14.4608 26.5304 13.7718 26.5061C13.081 26.4817 12.4872 25.8457 12.522 25.1673C12.5569 24.4876 13.126 23.9497 13.8103 23.9497C14.528 23.9499 15.0973 24.5261 15.085 25.2401Z" fill="#7AC05A"/>
</svg>
