<svg width="73" height="73" viewBox="0 0 73 73" fill="none" xmlns="http://www.w3.org/2000/svg">
<path d="M39.2777 72.0168C37.9238 71.4889 37.4208 70.4928 37.44 69.0548C37.4903 65.2851 37.4549 61.5142 37.4579 57.7439C37.4595 55.8908 38.3575 55 40.2227 54.9999C50.0327 54.9985 59.8428 55.015 69.6526 54.9817C71.0945 54.9768 72.0879 55.4591 72.5972 56.8295C72.5972 61.2825 72.5972 65.7355 72.5972 70.1885C72.2695 71.0795 71.6603 71.6889 70.7695 72.0166C60.2724 72.0168 49.7751 72.0168 39.2777 72.0168ZM55.0344 69.901C55.0344 69.9031 55.0344 69.9052 55.0344 69.9073C59.9285 69.9073 64.8226 69.9007 69.7167 69.9167C70.2583 69.9184 70.5069 69.8253 70.5024 69.1958C70.4744 65.4015 70.4775 61.607 70.5004 57.8127C70.5038 57.2508 70.3342 57.0973 69.7813 57.0982C59.9697 57.1149 50.1581 57.1176 40.3465 57.1031C39.7413 57.1022 39.5464 57.2558 39.5515 57.8884C39.5818 61.6123 39.5843 65.3367 39.5505 69.0606C39.5441 69.7531 39.7628 69.9177 40.4227 69.9142C45.2931 69.8896 50.1637 69.901 55.0344 69.901Z" fill="#7AC05A"/>
<path d="M72.5977 33.6269C72.0052 34.9854 70.9461 35.3829 69.5077 35.3771C59.8357 35.338 50.1637 35.3569 40.4916 35.3565C40.2574 35.3565 40.0229 35.3606 39.7892 35.3486C38.4355 35.2794 37.4796 34.3744 37.4706 33.0223C37.4435 28.9232 37.4468 24.8237 37.4678 20.7246C37.4745 19.4229 38.3281 18.5263 39.613 18.3632C39.8903 18.328 40.1736 18.3321 40.4541 18.3321C50.1495 18.3306 59.845 18.3454 69.5404 18.315C70.9813 18.3104 72.0411 18.7411 72.5977 20.1274C72.5977 24.627 72.5977 29.1269 72.5977 33.6269ZM39.6063 33.1848C39.9153 33.2013 40.1887 33.2285 40.4624 33.2286C50.2257 33.236 59.9892 33.2366 69.7526 33.2573C70.3384 33.2586 70.5048 33.0805 70.5011 32.499C70.4773 28.7052 70.4893 24.9112 70.4874 21.1173C70.4874 20.9341 70.4666 20.751 70.4527 20.5202C70.1262 20.4966 69.8266 20.4559 69.5269 20.4557C59.7868 20.4483 50.0468 20.4492 40.3067 20.4304C39.7153 20.4293 39.5522 20.6265 39.5555 21.2013C39.577 24.9716 39.5661 28.7422 39.5682 32.5127C39.5682 32.7173 39.5908 32.9221 39.6063 33.1848Z" fill="#7AC05A"/>
<path d="M11.1601 72.0168C10.7007 71.6601 10.2862 71.2751 10.537 70.6126C10.7812 69.9672 11.3282 69.9037 11.923 69.904C18.8783 69.9075 25.8336 69.8963 32.7887 69.9153C33.4428 69.9171 33.6696 69.7612 33.6631 69.065C33.6287 65.341 33.6319 61.6162 33.6615 57.8921C33.6664 57.2646 33.4808 57.1021 32.8702 57.103C23.0579 57.1179 13.2456 57.1151 3.43343 57.0984C2.88283 57.0975 2.70922 57.247 2.71256 57.8113C2.7358 61.6058 2.7344 65.4006 2.71362 69.1953C2.71063 69.7438 2.85677 69.9463 3.42586 69.9192C4.33706 69.8755 5.25196 69.9153 6.16528 69.9047C6.75708 69.8979 7.30415 69.9604 7.55313 70.6085C7.80844 71.2729 7.39026 71.6534 6.94214 72.017C5.44248 72.017 3.94282 72.017 2.44334 72.017C1.07838 71.5019 0.578495 70.5078 0.598215 69.0666C0.649982 65.2978 0.614414 61.5276 0.616175 57.7581C0.617056 55.8875 1.49762 55.0004 3.35983 55.0002C13.238 54.9987 23.1162 54.9986 32.9941 55.0001C34.8578 55.0002 35.7533 55.8912 35.7549 57.7474C35.7579 61.5169 35.7225 65.2869 35.7728 69.0559C35.792 70.4935 35.2886 71.4893 33.9351 72.017C26.3437 72.0168 18.7519 72.0168 11.1601 72.0168Z" fill="#7AC05A"/>
<path d="M72.5977 15.2053C72.0888 16.5746 71.0972 17.0738 69.6549 17.0534C65.9115 17.0004 62.1666 17.0381 58.4223 17.0344C56.6536 17.0326 55.735 16.1212 55.7329 14.3606C55.7283 10.4751 55.7283 6.58942 55.7329 2.7039C55.735 0.93748 56.6526 0.020993 58.4167 0.0192322C62.161 0.0155345 65.9057 0.052511 69.6493 0.000567888C71.0898 -0.019329 72.0832 0.481438 72.5979 1.84604C72.5977 6.29924 72.5977 10.7523 72.5977 15.2053ZM70.4888 8.56413C70.4888 6.64382 70.4737 4.72316 70.4988 2.80321C70.5055 2.28571 70.3497 2.11474 69.822 2.11738C66.0525 2.1364 62.2829 2.13604 58.5134 2.11756C57.9906 2.11492 57.8286 2.27884 57.8311 2.80004C57.8489 6.61724 57.8489 10.4346 57.8311 14.252C57.8286 14.7712 57.9857 14.9385 58.5106 14.9359C62.28 14.9172 66.0497 14.9172 69.8192 14.9359C70.3416 14.9385 70.5064 14.7778 70.4992 14.2548C70.473 12.3583 70.4888 10.4612 70.4888 8.56413Z" fill="#7AC05A"/>
<path d="M72.5975 51.9076C72.0411 53.2935 70.9827 53.7399 69.5409 53.7205C65.9125 53.6714 62.2828 53.7053 58.6537 53.7038C56.5987 53.7029 55.732 52.8461 55.7315 50.8171C55.7306 47.0232 55.7295 43.2292 55.732 39.4353C55.7332 37.5625 56.6066 36.6826 58.4804 36.6798C62.1564 36.6744 65.8331 36.72 69.508 36.6573C70.9478 36.6326 72.0051 37.0501 72.5975 38.408C72.5975 42.9079 72.5975 47.4077 72.5975 51.9076ZM70.4886 45.1798C70.4886 43.2834 70.475 41.3869 70.4977 39.4907C70.5035 39 70.4028 38.7751 69.848 38.7781C66.0562 38.7979 62.2643 38.7947 58.4725 38.7808C57.984 38.779 57.8293 38.9429 57.8314 39.4324C57.8479 43.272 57.8474 47.1117 57.8319 50.9513C57.83 51.4461 58.0043 51.603 58.4846 51.6014C62.2765 51.5891 66.0685 51.5885 69.8603 51.6017C70.3551 51.6035 70.5027 51.4204 70.4974 50.9391C70.4761 49.0195 70.4886 47.0996 70.4886 45.1798Z" fill="#7AC05A"/>
<path d="M36.5307 17.0354C31.6125 17.0354 26.6944 17.037 21.7762 17.0347C19.9174 17.0339 19.0366 16.1441 19.0356 14.2691C19.0333 10.4272 19.0327 6.58556 19.0359 2.74371C19.0375 0.924293 19.9395 0.0190748 21.7519 0.0188987C31.6586 0.0171379 41.5651 0.0171379 51.4718 0.0188987C53.2514 0.0192509 54.1723 0.925701 54.1744 2.68419C54.179 6.57288 54.1785 10.4614 54.1746 14.3501C54.1729 16.1258 53.268 17.033 51.4961 17.0342C46.5075 17.0376 41.5192 17.0354 36.5307 17.0354ZM36.608 14.9259C41.5023 14.9259 46.3965 14.9232 51.2908 14.9301C51.7504 14.9308 52.0847 14.9396 52.08 14.2885C52.0523 10.4473 52.0594 6.60581 52.0749 2.76431C52.0768 2.27411 51.9196 2.11828 51.4287 2.11898C41.5699 2.13272 31.7111 2.13536 21.8523 2.12585C21.3152 2.12532 21.1267 2.26548 21.1305 2.83879C21.1564 6.60968 21.1578 10.3811 21.13 14.152C21.1254 14.7776 21.311 14.9417 21.925 14.9389C26.8195 14.9155 31.7137 14.9259 36.608 14.9259Z" fill="#7AC05A"/>
<path d="M18.168 35.3566C13.2741 35.3566 8.37999 35.358 3.48607 35.3561C1.45518 35.3554 0.616875 34.5227 0.616346 32.5133C0.615466 28.6956 0.614057 24.8779 0.617051 21.0601C0.618459 19.2544 1.52914 18.3339 3.3408 18.333C13.2459 18.3286 23.1508 18.3281 33.0559 18.3336C34.8197 18.3346 35.7524 19.2713 35.7547 21.0205C35.7598 24.9085 35.7598 28.7965 35.7547 32.6845C35.7524 34.45 34.8467 35.352 33.0605 35.3545C28.0963 35.3608 23.1322 35.3566 18.168 35.3566ZM2.75024 33.1817C3.03566 33.2 3.26386 33.2275 3.49206 33.2277C13.3023 33.2354 23.1125 33.2379 32.9226 33.2544C33.4465 33.2553 33.6636 33.1361 33.6597 32.5522C33.6347 28.7584 33.6381 24.9645 33.6569 21.1707C33.6595 20.631 33.5113 20.4305 32.9464 20.4315C23.1362 20.4497 13.326 20.4504 3.51583 20.4593C3.26685 20.4595 3.01788 20.5097 2.75006 20.5386C2.75024 24.7581 2.75024 28.9225 2.75024 33.1817Z" fill="#7AC05A"/>
<path d="M52.0668 51.5292C52.0668 49.3381 52.0668 47.2547 52.0668 45.1712C52.0668 43.2965 52.0474 41.4213 52.0784 39.5471C52.0879 38.9775 51.937 38.7542 51.3368 38.7766C50.2371 38.8176 49.1347 38.7954 48.0337 38.7836C47.4146 38.7769 46.9281 38.5501 46.8047 37.8717C46.6992 37.292 47.1052 36.727 47.7349 36.7126C49.2326 36.6784 50.7353 36.6524 52.2296 36.7358C53.296 36.7953 54.1498 37.7752 54.1572 38.9044C54.1846 43.0989 54.1862 47.294 54.154 51.4884C54.1454 52.6094 53.3094 53.455 52.1951 53.6421C51.897 53.6921 51.5894 53.7017 51.286 53.7018C41.4926 53.7048 31.6991 53.705 21.9056 53.7036C19.9052 53.7032 19.0357 52.8318 19.0352 50.8348C19.0341 47.0383 19.0334 43.2419 19.0355 39.4455C19.0366 37.5627 19.9031 36.6812 21.7751 36.68C28.6633 36.6758 35.5517 36.677 42.4399 36.6828C42.7397 36.683 43.1336 36.6427 43.3174 36.8071C43.5967 37.0572 43.8862 37.4734 43.879 37.8131C43.8726 38.1131 43.5187 38.4871 43.2211 38.6743C42.9748 38.8292 42.5871 38.785 42.2619 38.7854C35.5144 38.7935 28.7669 38.8053 22.0194 38.7836C21.3152 38.7813 21.1198 38.9643 21.1277 39.6839C21.168 43.3861 21.1583 47.0892 21.1344 50.7918C21.1305 51.3898 21.2754 51.6083 21.913 51.6069C31.5892 51.5855 41.2654 51.5882 50.9416 51.5824C51.2889 51.5819 51.6359 51.5503 52.0668 51.5292Z" fill="#7AC05A"/>
<path d="M0.616058 45.164C0.616058 43.197 0.609896 41.23 0.617819 39.263C0.62451 37.6171 1.53096 36.6888 3.18117 36.6832C7.09063 36.6694 11.0003 36.6694 14.9099 36.6832C16.5559 36.689 17.4761 37.6215 17.4794 39.2604C17.4873 43.2178 17.4884 47.1751 17.4787 51.1325C17.4748 52.7153 16.5356 53.6877 14.9474 53.6965C11.0145 53.718 7.08147 53.7178 3.14859 53.6967C1.5572 53.6879 0.626271 52.7184 0.618347 51.1351C0.608487 49.1447 0.616058 47.1543 0.616058 45.164ZM2.72477 45.2305C2.72477 47.1269 2.7415 49.0236 2.71403 50.9196C2.70628 51.4519 2.89451 51.6045 3.4039 51.6026C7.17233 51.588 10.9409 51.5869 14.7094 51.6033C15.2408 51.6056 15.3846 51.4109 15.3823 50.9006C15.3652 47.0844 15.3635 43.2681 15.3837 39.4522C15.3866 38.913 15.1964 38.7776 14.6902 38.7797C10.9217 38.7957 7.15314 38.797 3.38471 38.7787C2.85313 38.776 2.70752 38.9572 2.71438 39.4715C2.74027 41.3908 2.72477 43.3107 2.72477 45.2305Z" fill="#7AC05A"/>
<path d="M9.07625 17.0353C7.13235 17.0355 5.18845 17.0399 3.24437 17.0341C1.55736 17.029 0.626964 16.1086 0.617103 14.4407C0.610941 13.4099 0.612173 12.3791 0.617103 11.3484C0.621329 10.449 0.981585 9.97426 1.65385 9.96457C2.35042 9.95454 2.72036 10.4414 2.72388 11.3854C2.72758 12.3459 2.75188 13.3074 2.71419 14.2663C2.69307 14.8062 2.89925 14.9374 3.40671 14.9351C7.17743 14.9178 10.9483 14.9196 14.719 14.9335C15.1883 14.9353 15.3846 14.8173 15.3823 14.306C15.3651 10.4641 15.3637 6.62208 15.3836 2.78023C15.3864 2.23351 15.1786 2.11642 14.6801 2.11871C10.9328 2.1349 7.18535 2.13737 3.43823 2.11659C2.89186 2.1136 2.68778 2.2564 2.71296 2.8276C2.7561 3.80958 2.73075 4.79492 2.723 5.77884C2.71631 6.61416 2.33774 7.08693 1.68836 7.09749C1.03053 7.10823 0.626083 6.63652 0.618864 5.81459C0.609004 4.69015 0.601784 3.56536 0.620625 2.44128C0.644219 1.00043 1.6174 0.0277762 3.07075 0.0230221C7.05223 0.00999229 11.0339 0.00981621 15.0154 0.0230221C16.5031 0.0279523 17.4717 1.00307 17.4768 2.50432C17.4907 6.51027 17.4894 10.5162 17.4778 14.522C17.4734 16.0697 16.5152 17.0228 14.9784 17.0322C13.0111 17.0442 11.0436 17.0352 9.07625 17.0353Z" fill="#7AC05A"/>
</svg>
